<svg width="72" height="72" viewBox="0 0 72 72" fill="none" xmlns="http://www.w3.org/2000/svg">
<path d="M15.1343 21.0994C15.4284 21.0805 15.7034 21.0888 15.9875 21.1783C16.4632 21.3282 16.8256 21.6697 17.0508 22.1081C17.3772 22.7434 17.3223 23.5161 17.1071 24.1774C16.497 26.0529 14.6632 27.6719 12.9341 28.5453C13.0284 29.4057 13.1642 30.2913 13.4206 31.1195C14.0178 30.7396 14.5886 30.2528 15.1233 29.7897C14.9534 29.2611 15.0308 28.798 15.2432 28.2957C15.4876 27.7179 16.0574 26.7571 16.6697 26.5262C16.8554 26.4562 17.0463 26.4588 17.2264 26.544C17.4445 26.6472 17.6309 26.8559 17.7078 27.0842C17.9971 27.9436 17.2031 28.504 16.8611 29.1774C16.8547 29.19 16.8488 29.2027 16.8426 29.2153C17.0889 29.3443 17.3203 29.4415 17.6029 29.4617C18.9382 29.557 19.3717 28.3445 20.2235 27.6383C20.4434 27.456 20.7285 27.2844 21.026 27.3204C21.2669 27.3496 21.4873 27.5205 21.6264 27.7124C21.8855 28.07 21.8767 28.5494 21.6943 28.9373C21.5005 29.3495 21.1475 29.693 20.8581 30.0393C19.9971 31.0696 19.1388 32.2815 18.964 33.6467C18.917 34.0142 18.9258 34.4844 19.1705 34.7831C19.2873 34.9258 19.4484 35.0094 19.633 35.0187C20.3199 35.053 21.1146 34.1722 21.5982 33.7543C21.5842 32.2484 21.7729 31.0052 22.3597 29.6099C22.8514 28.4409 23.7061 27.0368 24.9395 26.5427C25.4397 26.3423 26.0411 26.2984 26.5413 26.521C26.9972 26.724 27.3333 27.1332 27.5142 27.5913C27.7426 28.1689 27.7807 28.8465 27.5278 29.4218C26.8824 30.8897 24.6956 32.4934 23.2376 33.0678C23.2344 33.1777 23.2291 33.2896 23.2346 33.3994C23.2565 33.8395 23.4509 34.3046 23.7814 34.601C24.0143 34.8098 24.2999 34.8787 24.6069 34.8492C25.8333 34.7314 26.843 33.633 27.5731 32.7415C27.5829 32.2643 27.5888 31.7859 27.6343 31.3105C27.8872 28.6667 29.0965 23.4243 31.133 21.7749C31.6723 21.3381 32.3616 21.031 33.0683 21.1227C33.096 21.1261 33.1236 21.1302 33.1511 21.135C33.1786 21.1399 33.206 21.1454 33.2333 21.1516C33.2604 21.1579 33.2875 21.1649 33.3143 21.1725C33.3412 21.1801 33.3678 21.1885 33.3943 21.1975C33.4207 21.2065 33.4469 21.2162 33.4728 21.2266C33.4987 21.237 33.5244 21.248 33.5497 21.2598C33.575 21.2715 33.6001 21.2838 33.6248 21.2968C33.6495 21.3098 33.6738 21.3235 33.6978 21.3378C33.7219 21.3521 33.7455 21.3669 33.7687 21.3825C33.7919 21.3979 33.8147 21.414 33.8371 21.4307C33.8595 21.4474 33.8815 21.4646 33.903 21.4824C33.9245 21.5003 33.9455 21.5187 33.9661 21.5376C33.9866 21.5565 34.0066 21.5759 34.0262 21.5959C34.0457 21.6158 34.0647 21.6363 34.0832 21.6572C34.1017 21.6781 34.1196 21.6995 34.137 21.7214C34.1543 21.7433 34.1711 21.7656 34.1873 21.7883C34.7142 22.5178 34.6356 23.6852 34.3938 24.504C33.8404 26.3787 31.9882 29.0111 30.8121 30.6087C30.4028 31.1648 29.5674 31.9637 29.4718 32.6275C29.4042 33.0971 29.4211 33.9224 29.7226 34.3049C29.8983 34.5276 30.1447 34.6425 30.4236 34.6707C31.2441 34.7533 32.5335 33.9518 32.9777 33.3055C33.2409 32.9224 33.3545 32.1105 33.5326 31.6396C34.2519 29.737 35.534 27.3877 37.1536 26.119C37.8597 25.5658 38.7356 25.1213 39.6581 25.238C40.1932 25.3057 40.6491 25.6102 40.9659 26.0399C41.2826 26.4696 41.43 27.1554 41.3306 27.6782C41.3027 27.825 41.2391 27.9696 41.1046 28.0479C41.0614 28.073 40.9789 28.101 40.9319 28.086C40.7749 28.0361 40.6538 27.7909 40.5624 27.6566C40.3463 27.339 40.1548 27.1971 39.763 27.1316C39.2691 27.0491 38.7745 27.2758 38.3769 27.5512C36.6664 28.7361 35.3126 31.7202 34.9517 33.7366C34.9121 33.9581 34.8495 34.302 35.0136 34.487C35.075 34.5561 35.1635 34.5803 35.2525 34.5834C35.5448 34.5939 35.9089 34.2878 36.1249 34.1096C36.7986 33.554 37.4606 32.8632 37.9147 32.1123C38.1173 31.7771 38.2773 31.4076 38.4535 31.0576C38.8687 30.2334 39.372 29.3108 40.0097 28.6403C40.1886 28.4522 40.4103 28.2772 40.6829 28.2828C40.8374 28.2859 41.0287 28.3469 41.1346 28.4645C41.663 29.052 40.4548 31.0058 40.1901 31.656C39.9293 32.2968 39.6922 32.9796 39.6365 33.6741C39.6234 33.8364 39.6088 33.9962 39.7186 34.1243C39.7955 34.1404 39.8449 34.131 39.916 34.0966C40.1 34.0078 40.2643 33.8531 40.4141 33.7165C41.4425 32.7787 41.797 31.4618 42.2176 30.186C42.4771 29.3991 42.7219 28.5975 43.0163 27.8231C43.1456 27.4831 43.3507 27.0178 43.7099 26.8741C43.8642 26.8125 44.0271 26.8321 44.1736 26.9051C44.5095 27.0725 44.6336 27.3798 44.7519 27.7097C45.2067 27.1029 45.8001 26.3232 46.5214 26.021C46.5451 26.0112 46.569 26.0019 46.5931 25.9933C46.6172 25.9846 46.6415 25.9766 46.6661 25.9692C46.6907 25.9618 46.7154 25.955 46.7402 25.9488C46.7651 25.9427 46.7901 25.9372 46.8153 25.9323C46.8405 25.9274 46.8657 25.9231 46.8911 25.9195C46.9165 25.9159 46.942 25.913 46.9675 25.9106C46.993 25.9084 47.0186 25.9067 47.0442 25.9057C47.0698 25.9046 47.0955 25.9043 47.1211 25.9045C47.1467 25.9048 47.1723 25.9057 47.1979 25.9073C47.2235 25.9089 47.249 25.9112 47.2745 25.914C47.3 25.9169 47.3254 25.9204 47.3507 25.9246C47.3759 25.9287 47.4011 25.9335 47.4262 25.939C47.4512 25.9444 47.4761 25.9505 47.5009 25.9572C47.5256 25.9639 47.5502 25.9712 47.5745 25.9792C47.5989 25.9871 47.6231 25.9957 47.647 26.0049C47.6709 26.0141 47.6946 26.0238 47.7181 26.0342C48.0761 26.1946 48.3454 26.4996 48.4473 26.8797C48.8994 28.5642 46.7608 32.6711 47.1563 33.6783C47.1983 33.7174 47.2064 33.7397 47.2669 33.7462C47.6955 33.7925 48.1878 33.1833 48.4976 32.9369C48.4845 31.1698 48.9354 29.5393 49.8585 28.0273C50.4781 27.0124 51.5316 25.7029 52.7537 25.4168C53.2156 25.3086 53.6981 25.3697 54.0976 25.6327C54.4438 25.8606 54.682 26.3146 54.7459 26.7157C54.8091 27.1117 54.7558 27.6705 54.5047 27.9934C54.4039 28.1232 54.2945 28.2039 54.1302 28.2225C53.902 28.1674 53.8255 27.885 53.7028 27.7087C53.6247 27.5964 53.526 27.5053 53.3843 27.4891C53.0616 27.4524 52.628 27.798 52.395 28.0014C51.207 29.0384 50.3333 30.7427 50.24 32.3222C50.2128 32.7808 50.2594 33.3714 50.5877 33.7212C50.7361 33.8792 50.9324 33.9562 51.1478 33.9549C51.9974 33.9499 53.508 32.6812 54.0825 32.1035C54.0872 31.7309 54.1044 31.3604 54.1623 30.9919C54.44 29.2238 55.5034 26.8069 56.9801 25.7395C57.5088 25.3574 58.1634 25.1691 58.8123 25.2768C59.3596 25.3676 59.8551 25.6461 60.1745 26.1085C60.5532 26.6568 60.6058 27.318 60.4815 27.9581C60.368 28.5419 60.0919 29.0968 59.7537 29.5822C58.9688 30.7086 57.2087 32.2592 56.0476 33.0376C56.1088 33.1921 56.1685 33.349 56.2536 33.4922C56.4948 33.8984 56.8952 34.2411 57.3632 34.3429C58.5353 34.5981 59.0736 33.6129 59.9209 33.1081C60.124 32.9871 60.3766 32.9039 60.6112 32.9779C60.8036 33.0387 60.9593 33.212 61.0428 33.3908C61.1622 33.6466 61.1261 33.9263 61.0217 34.1807C60.7044 34.9541 59.8602 35.5702 59.1142 35.8874C58.1756 36.2863 57.0217 36.3208 56.0729 35.9343C56.0215 35.9139 55.9707 35.8922 55.9204 35.8694C55.8701 35.8465 55.8204 35.8224 55.7713 35.797C55.7222 35.7717 55.6737 35.7451 55.626 35.7174C55.5781 35.6897 55.5311 35.6608 55.4847 35.6307C55.4383 35.6006 55.3928 35.5694 55.3479 35.5371C55.3031 35.5048 55.2591 35.4714 55.216 35.4369C55.1728 35.4024 55.1305 35.3669 55.0891 35.3303C55.0476 35.2937 55.0071 35.2561 54.9676 35.2176C54.9281 35.179 54.8895 35.1394 54.8518 35.0989C54.8142 35.0584 54.7776 35.0171 54.7421 34.9748C54.7065 34.9325 54.6721 34.8893 54.6386 34.8453C54.6052 34.8014 54.5729 34.7566 54.5417 34.711C54.5105 34.6654 54.4804 34.619 54.4515 34.572C54.4225 34.5248 54.3947 34.4771 54.3682 34.4287C54.3416 34.3802 54.3163 34.3311 54.2921 34.2814C54.268 34.2317 54.2451 34.1814 54.2234 34.1306C53.739 34.5807 53.2601 34.9369 52.6794 35.2545C52.0348 35.6337 51.0992 35.9608 50.3438 35.7957C49.6667 35.6477 49.3144 35.2199 48.9555 34.6739C48.7278 34.8852 48.5046 35.1006 48.2444 35.2721C47.8074 35.5602 47.2591 35.7333 46.7359 35.617C46.3242 35.5255 45.9762 35.265 45.7574 34.9066C44.7604 33.2739 46.5641 29.4635 46.9697 27.6549L46.9834 27.5927C45.9503 28.1733 44.4325 30.6304 43.9555 31.7509C43.4453 32.9496 43.1295 34.8436 42.0535 35.6706C41.8872 35.7983 41.6829 35.902 41.4671 35.8684C41.2177 35.8296 41.0481 35.6597 40.9058 35.4653C40.5577 35.6715 40.1725 35.8874 39.7754 35.9796C39.3815 36.071 38.9509 36.0437 38.6076 35.8129C38.2702 35.5862 38.0689 35.1934 37.9873 34.8041C37.2019 35.5257 36.4195 36.2772 35.3477 36.536C34.8845 36.6478 34.3534 36.6392 33.9414 36.3755C33.5483 36.1239 33.2859 35.6469 33.193 35.1971C32.5842 35.7677 31.8809 36.2445 31.0804 36.5017C30.4317 36.7102 29.6929 36.6871 29.0826 36.3689C28.4368 36.0323 28.0817 35.421 27.874 34.7465C26.7507 35.6586 25.6494 36.574 24.1106 36.4902C23.1622 36.4385 22.7004 35.9705 22.1029 35.3C21.5444 35.5736 21.1127 36.0728 20.5397 36.353C19.9625 36.6353 19.2935 36.7349 18.6791 36.5088C18.1194 36.3028 17.6818 35.8938 17.4273 35.3562C16.8317 34.098 17.2218 32.713 17.6548 31.4765C16.9825 31.4635 16.4635 31.3328 15.9172 30.9362C15.2488 31.4914 14.5707 32.0544 13.8008 32.4652C13.9511 33.207 14.2599 33.9236 14.4884 34.6447C15.049 36.4148 15.6364 38.2111 16.0215 40.029C16.5769 39.9522 17.1301 39.8161 17.6834 39.7211C19.0093 39.4875 20.3404 39.2903 21.677 39.1295C22.2517 39.0588 22.827 38.993 23.4029 38.932C23.9788 38.8711 24.5551 38.8151 25.132 38.764C25.7088 38.7129 26.286 38.6667 26.8636 38.6255C27.4412 38.5842 28.0192 38.5478 28.5974 38.5164C29.1756 38.485 29.7541 38.4585 30.3328 38.4369C30.9115 38.4153 31.4903 38.3987 32.0692 38.387C32.6482 38.3752 33.2272 38.3684 33.8063 38.3666C34.3854 38.3647 34.9645 38.3678 35.5435 38.3757C36.1225 38.3837 36.7014 38.3967 37.2802 38.4145C37.859 38.4324 38.4377 38.4552 39.0161 38.4829C39.5945 38.5106 40.1726 38.5432 40.7505 38.5807C41.3284 38.6183 41.9059 38.6608 42.4831 38.7082C43.0602 38.7555 43.6369 38.8078 44.2131 38.865C44.7894 38.9223 45.3651 38.9844 45.9403 39.0514C46.5155 39.1184 47.0901 39.1903 47.6641 39.2671C48.238 39.3439 48.8113 39.4255 49.3839 39.5121C50.8319 39.729 52.2659 40.0031 53.7038 40.2775C54.6863 40.4573 55.6665 40.6483 56.6446 40.8506C57.8823 41.1185 59.1085 41.4271 60.3416 41.7134C61.906 42.0767 63.5204 42.4978 65.1395 42.358C65.8304 42.2984 66.5808 42.1223 67.129 41.6736C67.5375 41.3393 68.0014 40.3206 68.3701 40.2591C68.5313 40.2323 68.7953 40.3527 68.9258 40.4419C69.2464 40.6612 69.4059 41.0528 69.4702 41.4235C69.586 42.0912 69.3992 42.7651 69.0049 43.3098C67.9534 44.762 65.6309 45.0648 63.9786 44.9601C63.0542 44.9016 62.1683 44.7109 61.2661 44.5099C59.9982 44.218 58.7364 43.9015 57.4809 43.5603C55.2713 42.9791 53.0447 42.4162 50.8054 41.9619C50.272 41.8551 49.7377 41.7532 49.2026 41.6559C48.6673 41.5587 48.1313 41.4662 47.5945 41.3784C47.0577 41.2907 46.5201 41.2077 45.9818 41.1295C45.4434 41.0513 44.9045 40.9778 44.3648 40.9092C43.8253 40.8405 43.2851 40.7767 42.7444 40.7176C42.2036 40.6586 41.6624 40.6043 41.1207 40.5548C40.579 40.5054 40.0369 40.4607 39.4944 40.4209C38.9519 40.3811 38.4091 40.346 37.8659 40.3158C37.3228 40.2855 36.7795 40.2601 36.2359 40.2396C35.6923 40.219 35.1486 40.2032 34.6048 40.1923C34.0609 40.1814 33.517 40.1753 32.973 40.174C32.4291 40.1727 31.8852 40.1762 31.3413 40.1846C30.7974 40.1929 30.2536 40.2061 29.71 40.2241C29.1663 40.2421 28.6228 40.265 28.0796 40.2926C27.5363 40.3202 26.9934 40.3527 26.4506 40.39C25.908 40.4273 25.3657 40.4694 24.8237 40.5162C21.9839 40.7624 19.1785 41.1642 16.365 41.6138C16.4325 42.04 16.5034 42.4655 16.5779 42.8904C16.9282 45.0058 17.0219 48.03 15.7141 49.832C15.6856 49.8717 15.6561 49.9107 15.6257 49.9489C15.5953 49.9872 15.5639 50.0247 15.5315 50.0614C15.4992 50.0981 15.466 50.1339 15.4319 50.169C15.3978 50.204 15.3628 50.2381 15.327 50.2715C15.2912 50.3048 15.2546 50.3371 15.2172 50.3686C15.1797 50.4 15.1415 50.4305 15.1026 50.46C15.0636 50.4896 15.0239 50.5181 14.9836 50.5457C14.9432 50.5733 14.9021 50.5998 14.8604 50.6254C14.8187 50.6509 14.7764 50.6753 14.7335 50.6987C14.6905 50.7221 14.6471 50.7445 14.6031 50.7657C14.559 50.7869 14.5144 50.807 14.4694 50.826C14.4243 50.845 14.3788 50.8629 14.3329 50.8797C14.287 50.8964 14.2406 50.912 14.1939 50.9264C14.1472 50.9408 14.1002 50.954 14.0528 50.9661C14.0054 50.9782 13.9577 50.9891 13.9098 50.9988C13.8619 51.0084 13.8137 51.0169 13.7654 51.0242C12.9966 51.1416 12.1693 50.9455 11.5451 50.4799C9.83432 49.2038 9.52578 45.4793 9.22386 43.5031C7.82239 43.9347 6.22129 44.4381 5.10069 45.421C4.88615 45.609 4.69317 45.8599 4.5348 46.0963C4.32794 46.4053 4.0161 47.1611 3.64947 47.2684C3.49727 47.3129 3.35227 47.2783 3.21645 47.2015C2.87171 47.0064 2.62212 46.6375 2.52471 46.2596C2.3998 45.7751 2.49881 45.2879 2.74684 44.8598C3.57106 43.4373 5.78428 42.7077 7.27607 42.2025C7.88652 41.9957 8.49367 41.7866 9.11727 41.6221C9.01799 38.8808 9.40879 36.1987 9.87904 33.5077C10.1448 31.9871 10.4242 30.4703 10.7911 28.9706C10.3785 28.966 9.96271 29.0046 9.62282 28.72C9.60196 28.7026 9.58201 28.6843 9.56298 28.6649C9.544 28.6456 9.52604 28.6253 9.50912 28.604C9.49215 28.5829 9.47633 28.5608 9.46166 28.538C9.44694 28.5152 9.43344 28.4918 9.42116 28.4676C9.40883 28.4434 9.39779 28.4186 9.38804 28.3933C9.37825 28.368 9.36976 28.3423 9.36259 28.3161C9.35542 28.29 9.34958 28.2635 9.34508 28.2367C9.34063 28.21 9.33753 28.183 9.3358 28.1559C9.32033 27.9237 9.40091 27.6861 9.56291 27.5177C9.8945 27.173 10.6937 27.3247 11.1425 27.3074C11.4549 25.8196 11.9749 24.2641 12.7821 22.9709C13.3466 22.0666 14.0709 21.342 15.1343 21.0994Z" fill="#1C1917"/>
<path d="M14.1303 42.1294C14.2053 42.1189 14.2082 42.1102 14.2819 42.1421C14.3764 42.3419 14.3804 42.6057 14.4149 42.8248C14.6294 44.1852 14.722 45.5759 14.4983 46.9415C14.4001 47.5412 14.1692 48.5242 13.6307 48.885C13.4249 49.0229 13.1786 49.0499 12.9413 48.9893C12.598 48.9016 12.3484 48.6605 12.1662 48.3675C11.403 46.9394 10.9869 44.5683 10.9282 42.9487C11.9982 42.6848 13.0416 42.3135 14.1303 42.1294Z" fill="#22D3EE"/>
<path d="M11.7567 32.2297C11.9185 32.5451 12.1008 33.3669 12.2254 33.7632C12.632 35.0313 13.0129 36.307 13.3681 37.5904C13.6218 38.5265 13.8332 39.4734 14.0881 40.4095L12.6647 40.7559C12.0402 40.8994 11.4206 41.0801 10.7888 41.1878C10.7354 39.541 10.9279 37.928 11.1419 36.299C11.3209 34.936 11.5177 33.5835 11.7567 32.2297Z" fill="#22D3EE"/>
<path d="M33.0024 22.849L33.1273 22.9056C33.189 22.9735 33.2125 23.0234 33.2225 23.1131C33.3581 24.3236 30.8558 28.1408 30.0161 29.1616C29.9847 29.1956 29.9574 29.2125 29.9183 29.2366C29.8645 29.0623 29.9986 28.6879 30.0398 28.5041C30.3121 27.2914 30.6132 26.0594 31.1658 24.9388C31.5653 24.1287 32.0941 23.1575 33.0024 22.849Z" fill="#22D3EE"/>
<path d="M25.7914 27.9511C25.8596 27.9411 25.9338 27.9274 26.0025 27.9378C26.1884 27.9658 26.2732 28.1384 26.3672 28.2801C26.3569 28.3977 26.349 28.5183 26.3287 28.6347C26.1402 29.7147 24.7687 30.6409 23.95 31.251C23.802 31.3613 23.6448 31.4613 23.4919 31.5648C23.5535 31.2392 23.6487 30.9262 23.7637 30.6155C24.1359 29.6099 24.7748 28.4214 25.7914 27.9511Z" fill="#22D3EE"/>
<path d="M58.675 26.9004C58.7789 26.9206 58.885 26.9376 58.9627 27.0166C59.0282 27.0832 59.0499 27.1772 59.0455 27.2679C59.0011 28.1782 57.0807 29.8627 56.3742 30.5094L56.1006 30.7301C56.423 29.8474 56.7425 28.9373 57.2454 28.1385C57.5962 27.5813 58.0032 27.0529 58.675 26.9004Z" fill="#22D3EE"/>
<path d="M15.2169 22.9194C15.2907 22.9325 15.3844 22.945 15.4388 22.9978C15.5136 23.0706 15.5366 23.1496 15.5315 23.2519C15.4889 24.0972 14.0614 25.6502 13.4175 26.2267L13.3302 26.2974L13.2781 26.2904C13.2723 26.2498 13.2689 26.2415 13.2748 26.1949C13.3037 25.9665 13.4576 25.6935 13.5481 25.4835C13.9233 24.6124 14.3935 23.4494 15.2169 22.9194Z" fill="#22D3EE"/>
</svg>
